# xmcd CD database file
#
# Track frame offsets:
#	182
#	12607
#	25800
#	37665
#	49345
#	63447
#	74600
#	87557
#	98070
#	108500
#	124265
#	139557
#	151120
#	159857
#	170507
#	187732
#
# Disc length: 2678 seconds
#
# Revision: 1
# Processed by: cddbd v1.5.2PL0 Copyright (c) Steve Scherf et al.
# Submitted via: CDex 1.70beta2
#
DISCID=cc0a7410
DTITLE=Kenny Rogers - Greatest Hits
DYEAR=1992
DGENRE=Country
TTITLE0=Ruben James (Harvey)
TTITLE1=Ruby, Don't Take Your Love To Town (Tillis)
TTITLE2=Me And Bobby McGee (Kristofferson)
TTITLE3=Listen To The Music (Mann, Weil)
TTITLE4=Sunshine (Hurtt, Sigler)
TTITLE5=Always Leaving, Always Gone (Monda)
TTITLE6=Then I Miss You (Bond)
TTITLE7=Once Again She's All Alone (Settle)
TTITLE8=New Design (Sloan)
TTITLE9=Momma's Waiting (Williams, Rogers)
TTITLE10=My Washington Woman (Frazier, Owens)
TTITLE11=Girl, Get A Hold Of Yourself (Rogers)
TTITLE12=It's A Crazy Afternoon (King, Stern)
TTITLE13=Good Time Liberator (Settle, Rogers)
TTITLE14=Something's Burning (McDavies)
TTITLE15=A Stranger In My Place (Rogers, Vassy)
EXTD=YEAR: 1992
EXTT0=
EXTT1=
EXTT2=
EXTT3=
EXTT4=
EXTT5=
EXTT6=
EXTT7=
EXTT8=
EXTT9=
EXTT10=
EXTT11=
EXTT12=
EXTT13=
EXTT14=
EXTT15=
PLAYORDER=
